<mxfile host="app.diagrams.net" modified="2024-06-06T09:28:52.874Z" agent="Mozilla/5.0 (Windows NT 10.0; Win64; x64; rv:126.0) Gecko/20100101 Firefox/126.0" etag="KWnwJLQIWBcd6TLsUruZ" version="24.4.13" type="device">
  <diagram name="Page-1" id="c4acf3e9-155e-7222-9cf6-157b1a14988f">
    <mxGraphModel dx="819" dy="442" grid="1" gridSize="10" guides="1" tooltips="1" connect="1" arrows="1" fold="1" page="1" pageScale="1" pageWidth="850" pageHeight="1100" background="none" math="0" shadow="0">
      <root>
        <mxCell id="0" />
        <mxCell id="1" parent="0" />
        <mxCell id="5d2195bd80daf111-18" value="&lt;p style=&quot;margin:0px;margin-top:4px;text-align:center;&quot;&gt;&lt;i&gt;monkeylist&lt;/i&gt;&lt;/p&gt;&lt;hr size=&quot;1&quot;&gt;&lt;p style=&quot;margin:0px;margin-left:4px;&quot;&gt;- headref : struct Monkey*&lt;br&gt;&lt;/p&gt;&lt;hr size=&quot;1&quot;&gt;&lt;div&gt;+ initMonkeyList() : void&lt;/div&gt;&lt;div&gt;+ appendOrModifyMonkey(num:int, rssi:int, record_time:int, state : enum main_states, address:bt_addr_le_t) : void&lt;/div&gt;&lt;div&gt;+ removeMonkey(num:int) : void&lt;/div&gt;&lt;div&gt;+ getAllMonkeys(monkeysArray : struct Monkey*) : void&lt;/div&gt;&lt;div&gt;+ getMonkeyAtIndex(monkey : struct Monkey*, index : int) : bool&lt;/div&gt;&lt;div&gt;+ getMonkeyByID(monkey : struct Monkey*, id : int) : bool&lt;/div&gt;&lt;div&gt;+ getThreeMonkeys(monkeys : struct Monkey*, startIndex : int) : bool&lt;/div&gt;&lt;div&gt;+ getNumMonkeys() : int&lt;br&gt;&lt;/div&gt;&lt;div&gt;&lt;div&gt;&lt;br&gt;&lt;/div&gt;&lt;br&gt;&lt;/div&gt;&lt;p style=&quot;margin:0px;margin-left:4px;&quot;&gt;&lt;br&gt;&lt;/p&gt;&lt;p style=&quot;margin:0px;margin-left:4px;&quot;&gt;&lt;br&gt;&lt;/p&gt;" style="verticalAlign=top;align=left;overflow=fill;fontSize=12;fontFamily=Helvetica;html=1;rounded=0;shadow=0;comic=0;labelBackgroundColor=none;strokeWidth=1" parent="1" vertex="1">
          <mxGeometry x="80" y="90" width="630" height="180" as="geometry" />
        </mxCell>
      </root>
    </mxGraphModel>
  </diagram>
</mxfile>
